<svg xmlns="http://www.w3.org/2000/svg" xmlns:xlink="http://www.w3.org/1999/xlink" viewBox="0,0,256,256" width="144px" height="144px" fill-rule="nonzero"><g fill="#000000" fill-rule="nonzero" stroke="none" stroke-width="1" stroke-linecap="butt" stroke-linejoin="miter" stroke-miterlimit="10" stroke-dasharray="" stroke-dashoffset="0" font-family="none" font-weight="none" font-size="none" text-anchor="none" style="mix-blend-mode: normal"><g transform="scale(5.33333,5.33333)"><path d="M24,44c-11.028,0 -20,-8.972 -20,-20c0,-11.028 8.972,-20 20,-20c5.133,0 10.013,1.942 13.741,5.467c0.401,0.379 0.419,1.013 0.039,1.414c-0.38,0.403 -1.014,0.418 -1.414,0.04c-3.354,-3.173 -7.746,-4.921 -12.366,-4.921c-9.925,0 -18,8.075 -18,18c0,9.925 8.075,18 18,18c9.925,0 18,-8.075 18,-18c0,-1.363 -0.152,-2.719 -0.453,-4.031c-0.123,-0.539 0.213,-1.075 0.751,-1.198c0.535,-0.127 1.074,0.212 1.198,0.751c0.334,1.458 0.504,2.965 0.504,4.478c0,11.028 -8.972,20 -20,20z"></path><circle cx="38" cy="11" r="3"></circle><path d="M25,14h-4l-6,18h4z"></path><path d="M23,14h4l6,18h-4z"></path><path d="M26,29h-7v-4h6z"></path></g></g></svg>